<svg xmlns="http://www.w3.org/2000/svg" width="759" height="106" viewBox="0 0 759 106">
  <g id="footer-slogan" transform="translate(-11968 21287)">
    <rect id="사각형_154927" data-name="사각형 154927" width="759" height="106" transform="translate(11968 -21287)" fill="#ff3e3e" opacity="0"/>
    <g id="그룹_170992" data-name="그룹 170992" transform="translate(11968 -21285.033)">
      <path id="패스_90403" data-name="패스 90403" d="M0,.682V33.731H22.726V28.075H6.317V.682Z" transform="translate(0 0.66)" fill="#fff"/>
      <path id="패스_90404" data-name="패스 90404" d="M18.065,20.507a4.976,4.976,0,0,0,1.579,3.017,6.5,6.5,0,0,0,4.268,1.556,28.382,28.382,0,0,0,8.628-.989V29.23a27.094,27.094,0,0,1-8.628,1.131q-5.706-.186-8.982-3.371t-3.279-9.313q0-5.891,3.184-9.334A10.266,10.266,0,0,1,22.684,4.9a10.087,10.087,0,0,1,7.969,3.513q3.062,3.514,3.064,9.5v2.594Zm-.047-5h9.429a6.014,6.014,0,0,0-1.225-3.678,4.137,4.137,0,0,0-3.536-1.65A3.992,3.992,0,0,0,19.2,11.855a6.22,6.22,0,0,0-1.178,3.654" transform="translate(11.264 4.738)" fill="#fff"/>
      <path id="패스_90405" data-name="패스 90405" d="M39.44,27.628A9.982,9.982,0,0,1,32.6,30.267a8.169,8.169,0,0,1-6.152-2.358,8.057,8.057,0,0,1-2.287-5.845,7.61,7.61,0,0,1,2.828-6.13A9.983,9.983,0,0,1,33.5,14a13.963,13.963,0,0,1,5.564,1.036V13.625q0-3.4-4.858-3.536a25.959,25.959,0,0,0-7.306.848V5.75A33.888,33.888,0,0,1,34.631,4.9,11.815,11.815,0,0,1,42.41,7.353q2.971,2.5,2.972,7.45V29.654H39.44Zm-.376-8.016q-1.086-.283-2.382-.541a13.527,13.527,0,0,0-2.663-.26,4.22,4.22,0,0,0-2.5.895,2.934,2.934,0,0,0-1.038,2.311,3.143,3.143,0,0,0,.779,2.24,2.751,2.751,0,0,0,2.1.824,6.688,6.688,0,0,0,5.706-2.5Z" transform="translate(23.361 4.737)" fill="#fff"/>
      <path id="패스_90406" data-name="패스 90406" d="M47.69,34.647a10.129,10.129,0,0,1-7.731-3.277q-3.065-3.275-3.064-9.311,0-5.894,3.159-9.336A10,10,0,0,1,47.69,9.281a9.543,9.543,0,0,1,5.658,1.933V.37h6.319V34.035H53.818V32.149a9.446,9.446,0,0,1-6.128,2.5m.9-19.8A4.883,4.883,0,0,0,44.72,16.59q-1.508,1.744-1.509,5.47a8.32,8.32,0,0,0,1.367,5,4.371,4.371,0,0,0,3.914,2.028h0a5.925,5.925,0,0,0,4.856-2.736v-9.1a6.53,6.53,0,0,0-4.714-2.4Z" transform="translate(35.667 0.358)" fill="#fff"/>
      <path id="패스_90407" data-name="패스 90407" d="M66.825,25.234A3.493,3.493,0,0,0,67.3,27.5a3.891,3.891,0,0,0,2.453.614h3.817v5.517h-4.95a8.138,8.138,0,0,1-5.989-1.886A7.231,7.231,0,0,1,60.6,26.317V14.2H56.264V8.92H60.6V3.261l6.225-1.884V8.92h5.658V14.2H66.825Z" transform="translate(54.393 1.332)" fill="#fff"/>
      <path id="패스_90408" data-name="패스 90408" d="M66.476.37h6.317V11.921a8.8,8.8,0,0,1,6.223-2.592,9.019,9.019,0,0,1,6.744,2.5q2.449,2.5,2.451,7.543V34.035H81.891v-14.1q0-5-4.242-5-2.829,0-4.856,3.585V34.035H66.476Z" transform="translate(64.266 0.358)" fill="#fff"/>
      <path id="패스_90409" data-name="패스 90409" d="M86,20.507a4.976,4.976,0,0,0,1.579,3.017,6.5,6.5,0,0,0,4.268,1.556,28.382,28.382,0,0,0,8.628-.989V29.23a27.094,27.094,0,0,1-8.628,1.131q-5.706-.186-8.982-3.371t-3.279-9.313q0-5.891,3.184-9.334A10.266,10.266,0,0,1,90.621,4.9a10.087,10.087,0,0,1,7.969,3.513q3.062,3.514,3.064,9.5v2.594Zm-.047-5h9.429a6.014,6.014,0,0,0-1.225-3.678,4.137,4.137,0,0,0-3.536-1.65,3.992,3.992,0,0,0-3.489,1.674,6.22,6.22,0,0,0-1.178,3.654" transform="translate(76.942 4.738)" fill="#fff"/>
      <path id="패스_90410" data-name="패스 90410" d="M115.9,16.509a9.485,9.485,0,0,1,4.856,3.371A8.084,8.084,0,0,1,122.128,25a9.205,9.205,0,0,1-3.631,7.12q-3.4,2.64-9.665,2.734a37.893,37.893,0,0,1-10-1.178V28.012a43.57,43.57,0,0,0,10.042,1.178q3.632-.044,5.283-1.249a3.477,3.477,0,0,0,1.65-2.852,3.67,3.67,0,0,0-2.736-3.583l-7.92-2.736a10.786,10.786,0,0,1-4.575-2.97,7.293,7.293,0,0,1-1.837-5.092,9.727,9.727,0,0,1,2.875-7.167Q104.495.669,110.435.383a36.116,36.116,0,0,1,9.053.9V6.937a27.975,27.975,0,0,0-8.817-.848,7.459,7.459,0,0,0-4.339,1.249,3.807,3.807,0,0,0-1.225,3.041q0,2.313,2.828,3.4Z" transform="translate(95.46 0.345)" fill="#fff"/>
      <path id="패스_90411" data-name="패스 90411" d="M112.935.37h6.315V11.921a8.808,8.808,0,0,1,6.225-2.592,9.019,9.019,0,0,1,6.744,2.5q2.449,2.5,2.451,7.543V34.035h-6.321v-14.1q0-5-4.24-5-2.829,0-4.858,3.585V34.035h-6.315Z" transform="translate(109.18 0.358)" fill="#fff"/>
      <path id="패스_90412" data-name="패스 90412" d="M126.742.37h6.6V6.595h-6.6Zm.142,9.523H133.2v24.14h-6.317Z" transform="translate(122.528 0.358)" fill="#fff"/>
      <path id="패스_90413" data-name="패스 90413" d="M147.3,10.251v5.281h-5.7V34.391h-6.132V15.532h-4.1V10.251h4.1V9.4q0-4.667,2.547-7.07A8.842,8.842,0,0,1,144.854.02,27.91,27.91,0,0,1,147.965.4V5.676a11.974,11.974,0,0,0-2.217-.328,3.687,3.687,0,0,0-3.3,1.178,4.485,4.485,0,0,0-.848,2.923v.8Z" transform="translate(127.001 0)" fill="#fff"/>
      <path id="패스_90414" data-name="패스 90414" d="M149.936,25.234a3.493,3.493,0,0,0,.472,2.262,3.891,3.891,0,0,0,2.453.614h3.818v5.517h-4.95a8.139,8.139,0,0,1-5.989-1.886,7.231,7.231,0,0,1-2.028-5.422V14.2h-4.337V8.92h4.337V3.261l6.225-1.884V8.92h5.658V14.2h-5.658Z" transform="translate(134.741 1.332)" fill="#fff"/>
      <path id="패스_90415" data-name="패스 90415" d="M155.916.37h6.6V6.595h-6.6Zm.142,9.523h6.317v24.14h-6.317Z" transform="translate(150.733 0.358)" fill="#fff"/>
      <path id="패스_90416" data-name="패스 90416" d="M162.005,15.062q0-4.856,2.925-7.5t8.015-2.641a11.206,11.206,0,0,1,7.967,2.734,9.6,9.6,0,0,1,2.923,7.356V29.631h-6.317V15.722q0-5.139-4.573-5.139-4.623,0-4.622,5.139V29.631h-6.317Z" transform="translate(156.619 4.762)" fill="#fff"/>
      <path id="패스_90417" data-name="패스 90417" d="M201.242,33.733h-4.2l-8.673-22.348V33.733h-5.942V.681h7.214l9.525,23.668L208.644.681h7.212V33.733H209.87V11.384Z" transform="translate(176.365 0.659)" fill="#fff"/>
      <path id="패스_90418" data-name="패스 90418" d="M227.231,17.7a11.94,11.94,0,0,1-3.772,9.077,12.722,12.722,0,0,1-9.051,3.56,12.851,12.851,0,0,1-8.984-3.536,11.812,11.812,0,0,1-3.841-9.1,12.167,12.167,0,0,1,3.772-9.265,13.227,13.227,0,0,1,18.1.049,12.2,12.2,0,0,1,3.772,9.216m-19.426,0a7.188,7.188,0,0,0,1.839,5.092,6.714,6.714,0,0,0,9.523,0,7.18,7.18,0,0,0,1.841-5.092,7.484,7.484,0,0,0-1.841-5.234,6.6,6.6,0,0,0-9.523,0,7.491,7.491,0,0,0-1.839,5.234" transform="translate(194.881 4.715)" fill="#fff"/>
      <path id="패스_90419" data-name="패스 90419" d="M228.638,34.647a8.649,8.649,0,0,1-6.128-2.687v2.075h-5.847V.37h6.319V11.4a9.126,9.126,0,0,1,5.656-2.122,10,10,0,0,1,7.639,3.442q3.16,3.443,3.159,9.336,0,6.033-3.064,9.311a10.133,10.133,0,0,1-7.733,3.277m-.895-19.8H227.7a6.523,6.523,0,0,0-4.714,2.4v9.195a5.975,5.975,0,0,0,4.856,2.641h0a4.67,4.67,0,0,0,3.914-2.028,8.2,8.2,0,0,0,1.365-5q0-3.726-1.507-5.47a4.889,4.889,0,0,0-3.867-1.745" transform="translate(209.459 0.358)" fill="#fff"/>
      <path id="패스_90420" data-name="패스 90420" d="M230.23.37h6.6V6.595h-6.6Zm.142,9.523h6.317v24.14h-6.317Z" transform="translate(222.576 0.358)" fill="#fff"/>
      <rect id="사각형_154924" data-name="사각형 154924" width="6.317" height="33.665" transform="translate(464.83 0.726)" fill="#fff"/>
      <path id="패스_90421" data-name="패스 90421" d="M242.313.37h6.6V6.595h-6.6Zm.142,9.523h6.317v24.14h-6.317Z" transform="translate(234.257 0.358)" fill="#fff"/>
      <path id="패스_90422" data-name="패스 90422" d="M257.548,25.234a3.493,3.493,0,0,0,.472,2.262,3.891,3.891,0,0,0,2.453.614h3.817v5.517h-4.95a8.138,8.138,0,0,1-5.989-1.886,7.231,7.231,0,0,1-2.028-5.422V14.2h-4.337V8.92h4.337V3.261l6.225-1.884V8.92h5.658V14.2h-5.658Z" transform="translate(238.776 1.332)" fill="#fff"/>
      <path id="패스_90423" data-name="패스 90423" d="M255.641,5.212h6.27l5.8,15.37,6.128-15.37h6.317l-14,33.287h-6.272l4.527-10.656Z" transform="translate(247.142 5.039)" fill="#fff"/>
      <path id="패스_90424" data-name="패스 90424" d="M269.425,26.442q4.006-1.649,4.1-4.384h-3.584V14.514h7.922v5.847a8.96,8.96,0,0,1-6.178,8.957Z" transform="translate(260.468 14.032)" fill="#fff"/>
      <path id="패스_90425" data-name="패스 90425" d="M18.812,63.983h-4.2L5.942,41.634V63.983H0V30.931H7.214L16.739,54.6l9.476-23.668h7.212V63.983H27.44V41.634Z" transform="translate(0 29.903)" fill="#fff"/>
      <path id="패스_90426" data-name="패스 90426" d="M44.371,47.95A11.94,11.94,0,0,1,40.6,57.027a12.723,12.723,0,0,1-9.053,3.56,12.846,12.846,0,0,1-8.982-3.536,11.812,11.812,0,0,1-3.841-9.1,12.166,12.166,0,0,1,3.77-9.265,12.73,12.73,0,0,1,9.053-3.558A12.634,12.634,0,0,1,40.6,38.734a12.2,12.2,0,0,1,3.772,9.216m-19.426,0a7.188,7.188,0,0,0,1.839,5.092,6.2,6.2,0,0,0,4.762,1.981,6.2,6.2,0,0,0,4.762-1.981,7.179,7.179,0,0,0,1.839-5.092,7.482,7.482,0,0,0-1.839-5.234,6.129,6.129,0,0,0-4.762-2.028,6.135,6.135,0,0,0-4.762,2.028,7.491,7.491,0,0,0-1.839,5.234" transform="translate(18.101 33.96)" fill="#fff"/>
      <path id="패스_90427" data-name="패스 90427" d="M47.206,59.6h-5.47l-9.9-24.14h6.27l6.412,16.6,6.461-16.6h6.27Z" transform="translate(30.777 34.284)" fill="#fff"/>
      <path id="패스_90428" data-name="패스 90428" d="M51.265,50.757a4.976,4.976,0,0,0,1.579,3.017,6.5,6.5,0,0,0,4.268,1.556,28.382,28.382,0,0,0,8.628-.989V59.48a27.093,27.093,0,0,1-8.628,1.131q-5.706-.186-8.982-3.371t-3.279-9.313q0-5.891,3.184-9.334a10.266,10.266,0,0,1,7.849-3.442,10.087,10.087,0,0,1,7.969,3.513q3.062,3.514,3.064,9.5v2.594Zm-.047-5h9.429a6.014,6.014,0,0,0-1.225-3.678,4.137,4.137,0,0,0-3.536-1.65A3.992,3.992,0,0,0,52.4,42.105a6.22,6.22,0,0,0-1.178,3.654" transform="translate(43.36 33.983)" fill="#fff"/>
      <path id="패스_90429" data-name="패스 90429" d="M73.656,55.484a3.493,3.493,0,0,0,.472,2.262,3.891,3.891,0,0,0,2.453.614H80.4v5.517h-4.95a8.138,8.138,0,0,1-5.989-1.886,7.231,7.231,0,0,1-2.028-5.422V44.45H63.095V39.17h4.337V33.511l6.225-1.884V39.17h5.658V44.45H73.656Z" transform="translate(60.997 30.576)" fill="#fff"/>
      <path id="패스_90430" data-name="패스 90430" d="M73.308,30.62h6.317V42.171a8.8,8.8,0,0,1,6.223-2.592,9.019,9.019,0,0,1,6.744,2.5q2.449,2.5,2.451,7.542V64.285H88.723v-14.1q0-5-4.242-5-2.829,0-4.856,3.585V64.285H73.308Z" transform="translate(70.871 29.602)" fill="#fff"/>
      <path id="패스_90431" data-name="패스 90431" d="M92.834,50.757a4.976,4.976,0,0,0,1.579,3.017,6.5,6.5,0,0,0,4.268,1.556,28.382,28.382,0,0,0,8.628-.989V59.48a27.093,27.093,0,0,1-8.628,1.131q-5.706-.186-8.982-3.371T86.42,47.927q0-5.891,3.184-9.334a10.266,10.266,0,0,1,7.849-3.442,10.087,10.087,0,0,1,7.969,3.513q3.062,3.514,3.064,9.5v2.594Zm-.047-5h9.429a6.014,6.014,0,0,0-1.225-3.678,4.137,4.137,0,0,0-3.536-1.65,3.992,3.992,0,0,0-3.489,1.674,6.22,6.22,0,0,0-1.178,3.654" transform="translate(83.547 33.983)" fill="#fff"/>
      <path id="패스_90432" data-name="패스 90432" d="M116.567,54.128l6.176-23.2h6.083l5.94,23.2,5.894-23.2h6.317l-9.053,33.049h-5.94l-6.223-23.715-6.319,23.715H113.6l-9.006-33.049h6.317Z" transform="translate(101.114 29.904)" fill="#fff"/>
      <path id="패스_90433" data-name="패스 90433" d="M151.456,47.95a11.94,11.94,0,0,1-3.772,9.077,13.233,13.233,0,0,1-18.035.024,11.812,11.812,0,0,1-3.841-9.1,12.166,12.166,0,0,1,3.77-9.265,13.23,13.23,0,0,1,18.106.049,12.2,12.2,0,0,1,3.772,9.216m-19.426,0a7.187,7.187,0,0,0,1.839,5.092,6.714,6.714,0,0,0,9.523,0,7.179,7.179,0,0,0,1.839-5.092,7.482,7.482,0,0,0-1.839-5.234,6.6,6.6,0,0,0-9.523,0,7.491,7.491,0,0,0-1.839,5.234" transform="translate(121.625 33.96)" fill="#fff"/>
      <path id="패스_90434" data-name="패스 90434" d="M140.886,35.764h5.94v2.545Q149.7,35.152,153,35.15a12.253,12.253,0,0,1,2.5.33v5.564a6.976,6.976,0,0,0-2.545-.189A7.9,7.9,0,0,0,147.2,44.2V59.9h-6.317Z" transform="translate(136.202 33.982)" fill="#fff"/>
      <rect id="사각형_154925" data-name="사각형 154925" width="6.317" height="33.665" transform="translate(294.533 60.221)" fill="#fff"/>
      <path id="패스_90435" data-name="패스 90435" d="M165.825,64.9a10.129,10.129,0,0,1-7.731-3.277q-3.065-3.275-3.066-9.311,0-5.894,3.161-9.336a10,10,0,0,1,7.637-3.442,9.543,9.543,0,0,1,5.658,1.933V30.619H177.8V64.284h-5.849V62.4a9.446,9.446,0,0,1-6.128,2.5m.9-19.8a4.883,4.883,0,0,0-3.867,1.745q-1.508,1.744-1.508,5.47a8.32,8.32,0,0,0,1.367,5,4.371,4.371,0,0,0,3.914,2.028h0a5.925,5.925,0,0,0,4.856-2.736V47.5a6.53,6.53,0,0,0-4.714-2.4Z" transform="translate(149.874 29.601)" fill="#fff"/>
      <path id="패스_90436" data-name="패스 90436" d="M187.813,64.9a8.649,8.649,0,0,1-6.128-2.687v2.075h-5.847V30.619h6.319V41.652a9.126,9.126,0,0,1,5.656-2.122,10,10,0,0,1,7.639,3.442q3.16,3.443,3.159,9.336,0,6.033-3.064,9.311a10.133,10.133,0,0,1-7.733,3.277m-.895-19.8h-.047a6.523,6.523,0,0,0-4.714,2.4v9.195a5.975,5.975,0,0,0,4.856,2.641h0a4.67,4.67,0,0,0,3.914-2.028,8.2,8.2,0,0,0,1.365-5q0-3.726-1.507-5.47a4.889,4.889,0,0,0-3.867-1.745" transform="translate(169.991 29.601)" fill="#fff"/>
      <path id="패스_90437" data-name="패스 90437" d="M195.124,50.757a4.977,4.977,0,0,0,1.579,3.017,6.5,6.5,0,0,0,4.268,1.556,28.381,28.381,0,0,0,8.628-.989V59.48a27.093,27.093,0,0,1-8.628,1.131q-5.706-.186-8.982-3.371t-3.279-9.313q0-5.891,3.184-9.334a10.266,10.266,0,0,1,7.849-3.442,10.087,10.087,0,0,1,7.969,3.513q3.062,3.514,3.064,9.5v2.594Zm-.047-5H204.5a6.014,6.014,0,0,0-1.225-3.678,4.137,4.137,0,0,0-3.536-1.65,3.992,3.992,0,0,0-3.489,1.674,6.221,6.221,0,0,0-1.178,3.654" transform="translate(182.436 33.983)" fill="#fff"/>
      <path id="패스_90438" data-name="패스 90438" d="M200.337,35.462h6.27l5.8,15.37,6.128-15.37h6.317l-14,33.287h-6.272l4.527-10.656Z" transform="translate(193.677 34.284)" fill="#fff"/>
      <path id="패스_90439" data-name="패스 90439" d="M238.259,47.95a11.94,11.94,0,0,1-3.772,9.077,13.233,13.233,0,0,1-18.035.024,11.812,11.812,0,0,1-3.841-9.1,12.166,12.166,0,0,1,3.77-9.265,13.23,13.23,0,0,1,18.106.049,12.2,12.2,0,0,1,3.772,9.216m-19.426,0a7.187,7.187,0,0,0,1.839,5.092,6.714,6.714,0,0,0,9.523,0,7.179,7.179,0,0,0,1.839-5.092,7.483,7.483,0,0,0-1.839-5.234,6.6,6.6,0,0,0-9.523,0,7.491,7.491,0,0,0-1.839,5.234" transform="translate(205.543 33.96)" fill="#fff"/>
      <path id="패스_90440" data-name="패스 90440" d="M226.994,45.311q0-4.856,2.925-7.5t8.015-2.641a11.206,11.206,0,0,1,7.967,2.734,9.6,9.6,0,0,1,2.923,7.356V59.88h-6.317V45.971q0-5.139-4.573-5.139-4.623,0-4.622,5.139V59.88h-6.317Z" transform="translate(219.448 34.005)" fill="#fff"/>
      <path id="패스_90441" data-name="패스 90441" d="M250.257,64.9a10.126,10.126,0,0,1-7.731-3.277q-3.065-3.275-3.068-9.311,0-5.894,3.161-9.336a10,10,0,0,1,7.639-3.442,9.551,9.551,0,0,1,5.658,1.933V30.619h6.317V64.284h-5.849V62.4a9.437,9.437,0,0,1-6.126,2.5m.895-19.8a4.883,4.883,0,0,0-3.867,1.745q-1.508,1.744-1.508,5.47a8.307,8.307,0,0,0,1.369,5,4.365,4.365,0,0,0,3.912,2.028h0a5.931,5.931,0,0,0,4.858-2.736V47.5a6.533,6.533,0,0,0-4.716-2.4Z" transform="translate(231.497 29.601)" fill="#fff"/>
      <path id="패스_90442" data-name="패스 90442" d="M260.388,30.931h10.278a19.772,19.772,0,0,1,7.92,1.274,10.273,10.273,0,0,1,3.206,2.167,10.392,10.392,0,0,1,2.736,7.308,9.647,9.647,0,0,1-5.942,9.383,19.812,19.812,0,0,1-7.4,1.131h-4.48V63.982h-6.317Zm6.317,15.606h5.422a6.725,6.725,0,0,0,4.62-1.461,4.427,4.427,0,0,0,1.414-3.395,4.6,4.6,0,0,0-1.414-3.536,6.471,6.471,0,0,0-4.62-1.556h-5.422Z" transform="translate(251.731 29.903)" fill="#fff"/>
      <path id="패스_90443" data-name="패스 90443" d="M298.765,47.95a11.94,11.94,0,0,1-3.772,9.077,13.233,13.233,0,0,1-18.035.024,11.812,11.812,0,0,1-3.841-9.1,12.166,12.166,0,0,1,3.77-9.265,13.23,13.23,0,0,1,18.106.049,12.2,12.2,0,0,1,3.772,9.216m-19.426,0a7.187,7.187,0,0,0,1.839,5.092,6.714,6.714,0,0,0,9.523,0,7.179,7.179,0,0,0,1.839-5.092,7.482,7.482,0,0,0-1.839-5.234,6.6,6.6,0,0,0-9.523,0,7.491,7.491,0,0,0-1.839,5.234" transform="translate(264.037 33.96)" fill="#fff"/>
      <path id="패스_90444" data-name="패스 90444" d="M293.558,42.694a1.549,1.549,0,0,0,.659,1.272,10.722,10.722,0,0,0,3.772,1.32l3.77.9a7.234,7.234,0,0,1,4.315,2.476,6.834,6.834,0,0,1,1.251,4.124,7.011,7.011,0,0,1-2.83,5.706q-2.593,2.074-8.439,2.309a28.949,28.949,0,0,1-8.156-.753V54.764a38.149,38.149,0,0,0,8.062.848,8.74,8.74,0,0,0,4.15-.753,2.042,2.042,0,0,0,1.131-1.745q0-1.744-2.358-2.264l-3.345-.753q-8.11-1.794-8.111-7.167a7.13,7.13,0,0,1,2.616-5.422q2.617-2.357,7.8-2.453a28.365,28.365,0,0,1,7.592.944v5.139a28.888,28.888,0,0,0-8.064-.8q-3.629.236-3.817,2.358" transform="translate(277.872 33.888)" fill="#fff"/>
      <path id="패스_90445" data-name="패스 90445" d="M304.969,42.694a1.549,1.549,0,0,0,.659,1.272,10.722,10.722,0,0,0,3.772,1.32l3.77.9a7.235,7.235,0,0,1,4.315,2.476,6.835,6.835,0,0,1,1.251,4.124,7.011,7.011,0,0,1-2.83,5.706q-2.593,2.074-8.439,2.309a28.949,28.949,0,0,1-8.156-.753V54.764a38.149,38.149,0,0,0,8.062.848,8.74,8.74,0,0,0,4.15-.753,2.042,2.042,0,0,0,1.131-1.745q0-1.744-2.358-2.264L306.95,50.1q-8.11-1.794-8.111-7.167a7.13,7.13,0,0,1,2.616-5.422q2.617-2.357,7.8-2.453a28.365,28.365,0,0,1,7.592.944v5.139a28.888,28.888,0,0,0-8.064-.8q-3.629.236-3.818,2.358" transform="translate(288.904 33.888)" fill="#fff"/>
      <path id="패스_90446" data-name="패스 90446" d="M310.946,30.62h6.6v6.225h-6.6Zm.14,9.523H317.4v24.14h-6.317Z" transform="translate(300.609 29.602)" fill="#fff"/>
      <path id="패스_90447" data-name="패스 90447" d="M329.034,64.9a8.649,8.649,0,0,1-6.128-2.687v2.075h-5.847V30.619h6.319V41.652a9.126,9.126,0,0,1,5.656-2.122,10,10,0,0,1,7.639,3.442q3.159,3.443,3.159,9.336,0,6.033-3.064,9.311a10.133,10.133,0,0,1-7.733,3.277m-.895-19.8h-.047a6.523,6.523,0,0,0-4.714,2.4v9.195a5.975,5.975,0,0,0,4.856,2.641h0a4.67,4.67,0,0,0,3.914-2.028,8.2,8.2,0,0,0,1.365-5q0-3.726-1.507-5.47a4.888,4.888,0,0,0-3.867-1.745" transform="translate(306.517 29.601)" fill="#fff"/>
      <path id="패스_90448" data-name="패스 90448" d="M330.627,30.62h6.6v6.225h-6.6Zm.14,9.523h6.317v24.14h-6.317Z" transform="translate(319.635 29.602)" fill="#fff"/>
      <rect id="사각형_154926" data-name="사각형 154926" width="6.317" height="33.665" transform="translate(662.284 60.221)" fill="#fff"/>
      <path id="패스_90449" data-name="패스 90449" d="M342.708,30.62h6.6v6.225h-6.6Zm.142,9.523h6.317v24.14H342.85Z" transform="translate(331.315 29.602)" fill="#fff"/>
      <path id="패스_90450" data-name="패스 90450" d="M357.943,55.484a3.493,3.493,0,0,0,.472,2.262,3.891,3.891,0,0,0,2.453.614h3.817v5.517h-4.95a8.138,8.138,0,0,1-5.989-1.886,7.231,7.231,0,0,1-2.028-5.422V44.45h-4.337V39.17h4.337V33.511l6.225-1.884V39.17H363.6V44.45h-5.658Z" transform="translate(335.833 30.576)" fill="#fff"/>
      <path id="패스_90451" data-name="패스 90451" d="M357.523,30.62h6.6v6.225h-6.6Zm.142,9.523h6.317v24.14h-6.317Z" transform="translate(345.637 29.602)" fill="#fff"/>
      <path id="패스_90452" data-name="패스 90452" d="M369.282,50.757a4.976,4.976,0,0,0,1.579,3.017,6.5,6.5,0,0,0,4.268,1.556,28.382,28.382,0,0,0,8.628-.989V59.48a27.093,27.093,0,0,1-8.628,1.131q-5.706-.186-8.982-3.371t-3.279-9.313q0-5.891,3.184-9.334a10.266,10.266,0,0,1,7.849-3.442,10.087,10.087,0,0,1,7.969,3.513q3.062,3.514,3.064,9.5v2.594Zm-.047-5h9.429a6.014,6.014,0,0,0-1.225-3.678,4.137,4.137,0,0,0-3.536-1.65,3.992,3.992,0,0,0-3.489,1.674,6.22,6.22,0,0,0-1.178,3.654" transform="translate(350.804 33.983)" fill="#fff"/>
      <path id="패스_90453" data-name="패스 90453" d="M381.512,42.694a1.549,1.549,0,0,0,.659,1.272,10.721,10.721,0,0,0,3.772,1.32l3.77.9a7.234,7.234,0,0,1,4.315,2.476,6.835,6.835,0,0,1,1.251,4.124,7.011,7.011,0,0,1-2.83,5.706q-2.593,2.074-8.439,2.309a28.949,28.949,0,0,1-8.156-.753V54.764a38.148,38.148,0,0,0,8.062.848,8.74,8.74,0,0,0,4.15-.753,2.042,2.042,0,0,0,1.131-1.745q0-1.744-2.358-2.264l-3.345-.753q-8.11-1.794-8.111-7.167A7.13,7.13,0,0,1,378,37.508q2.617-2.357,7.8-2.453a28.365,28.365,0,0,1,7.592.944v5.139a28.888,28.888,0,0,0-8.064-.8q-3.629.236-3.818,2.358" transform="translate(362.902 33.888)" fill="#fff"/>
    </g>
  </g>
</svg>
